# Blender v2.76 (sub 0) OBJ File: ''
# www.blender.org
mtllib m4receiver_fireselector.mtl
o Figure_1
v 0.036606 -0.070998 -0.038533
v 0.036703 -0.069680 -0.029851
v 0.036606 -0.075765 -0.033572
v 0.036606 -0.064738 -0.041013
v 0.036703 -0.068285 -0.024270
v 0.036606 -0.064545 -0.006907
v 0.036703 -0.069564 -0.018689
v 0.036606 -0.070843 -0.010007
v 0.036606 -0.075649 -0.014348
v 0.036606 -0.057936 -0.041633
v 0.036606 -0.057743 -0.006907
v 0.036606 -0.051483 -0.010007
v 0.036606 -0.051658 -0.038533
v 0.036606 -0.046823 -0.034192
v 0.036606 -0.046707 -0.014968
v 0.036606 -0.044149 -0.021169
v 0.036606 -0.044187 -0.027991
v 0.036606 -0.036378 -0.024270
v 0.036606 -0.036378 -0.024270
v 0.034475 -0.044149 -0.021169
v 0.036606 -0.044149 -0.021169
v 0.034475 -0.036378 -0.024270
v 0.036606 -0.044187 -0.027991
v 0.036606 -0.046823 -0.034192
v 0.034475 -0.044187 -0.027991
v 0.034475 -0.046823 -0.034192
v 0.036606 -0.051658 -0.038533
v 0.034475 -0.051658 -0.038533
v 0.036606 -0.057936 -0.041633
v 0.034475 -0.057936 -0.041633
v 0.036606 -0.064738 -0.041013
v 0.034475 -0.064738 -0.041013
v 0.036606 -0.070998 -0.038533
v 0.034475 -0.070998 -0.038533
v 0.036606 -0.075765 -0.033572
v 0.034475 -0.075765 -0.033572
v 0.034475 -0.078323 -0.027371
v 0.036703 -0.078362 -0.027371
v 0.036703 -0.078323 -0.020549
v 0.034475 -0.078284 -0.020549
v 0.036606 -0.075649 -0.014348
v 0.034475 -0.075649 -0.014348
v 0.036606 -0.070843 -0.010007
v 0.034475 -0.070843 -0.010007
v 0.036606 -0.064545 -0.006907
v 0.034475 -0.064545 -0.006907
v 0.036606 -0.057743 -0.006907
v 0.034475 -0.057743 -0.006907
v 0.036606 -0.051483 -0.010007
v 0.034475 -0.051483 -0.010007
v 0.036606 -0.046707 -0.014968
v 0.034475 -0.046707 -0.014968
v 0.036606 -0.044149 -0.021169
v 0.034475 -0.044149 -0.021169
v 0.036606 -0.044187 -0.027991
v 0.034475 -0.036378 -0.024270
v 0.036606 -0.036378 -0.024270
v 0.034475 -0.044187 -0.027991
v 0.036781 -0.122080 -0.024270
v 0.036781 -0.120762 -0.029231
v 0.041548 -0.119057 -0.028611
v 0.041548 -0.120064 -0.024270
v 0.041548 -0.119057 -0.019309
v 0.036781 -0.120685 -0.018689
v 0.044687 -0.116886 -0.026750
v 0.044687 -0.117506 -0.024270
v 0.044687 -0.116809 -0.021169
v 0.044687 -0.114018 -0.019309
v 0.041548 -0.114793 -0.016208
v 0.036781 -0.114871 -0.014348
v 0.036781 -0.120685 -0.018689
v 0.044687 -0.114096 -0.028611
v 0.041548 -0.114871 -0.031711
v 0.041470 -0.075765 -0.032332
v 0.044687 -0.076307 -0.028611
v 0.041509 -0.071346 -0.028611
v 0.044687 -0.073517 -0.026750
v 0.041509 -0.070300 -0.024270
v 0.044687 -0.072819 -0.024270
v 0.036781 -0.115026 -0.033572
v 0.036781 -0.120762 -0.029231
v 0.044687 -0.073478 -0.021790
v 0.041509 -0.071269 -0.019929
v 0.044687 -0.076269 -0.019309
v 0.041470 -0.075649 -0.016208
v 0.036606 -0.075649 -0.014348
v 0.036781 -0.114871 -0.014348
v 0.036703 -0.068285 -0.024270
v 0.036703 -0.069564 -0.018689
v 0.036703 -0.069680 -0.029851
v 0.036703 -0.069564 -0.018689
v 0.036606 -0.075765 -0.033572
v 0.036781 -0.115026 -0.033572
v 0.036703 -0.078362 -0.027371
v 0.036703 -0.078323 -0.020549
v 0.036781 -0.114871 -0.014348
v 0.036606 -0.075649 -0.014348
v 0.036781 -0.120762 -0.029231
v 0.036781 -0.120685 -0.018689
v 0.036781 -0.122080 -0.024270
v 0.036606 -0.075765 -0.033572
v 0.036703 -0.069680 -0.029851
v 0.036781 -0.115026 -0.033572
v 0.044687 -0.116809 -0.021169
v 0.044687 -0.117506 -0.024270
v 0.044687 -0.116886 -0.026750
v 0.044687 -0.114096 -0.028611
v 0.044687 -0.114018 -0.019309
v 0.044687 -0.076307 -0.028611
v 0.044687 -0.076269 -0.019309
v 0.044687 -0.073517 -0.026750
v 0.044687 -0.073478 -0.021790
v 0.044687 -0.072819 -0.024270
v 0.034126 -0.054875 -0.078840
v 0.034126 -0.042918 -0.076980
v 0.039164 -0.046697 -0.074499
v 0.040385 -0.049390 -0.073879
v 0.040385 -0.054720 -0.075120
v 0.039164 -0.046697 -0.057136
v 0.034126 -0.042918 -0.076980
v 0.034126 -0.042918 -0.054656
v 0.039164 -0.046697 -0.074499
v 0.040385 -0.049390 -0.057136
v 0.040385 -0.049390 -0.073879
v 0.040385 -0.054720 -0.075120
v 0.040385 -0.054720 -0.055896
v 0.040385 -0.054720 -0.055896
v 0.034126 -0.054875 -0.078840
v 0.040385 -0.054720 -0.075120
v 0.034126 -0.054875 -0.052175
v 0.034126 -0.042918 -0.054656
v 0.034126 -0.054875 -0.052175
v 0.039164 -0.046697 -0.057136
v 0.040385 -0.049390 -0.057136
v 0.040385 -0.054720 -0.055896
v 0.034165 -0.054875 0.000535
v 0.034165 -0.042918 0.002395
v 0.039203 -0.046697 0.004875
v 0.040424 -0.049390 0.005496
v 0.040424 -0.054720 0.004255
v 0.034165 -0.042918 0.024719
v 0.039203 -0.046697 0.004875
v 0.034165 -0.042918 0.002395
v 0.039203 -0.046697 0.022239
v 0.040424 -0.049390 0.022239
v 0.040424 -0.049390 0.005496
v 0.040424 -0.054720 0.023479
v 0.040424 -0.054720 0.004255
v 0.040424 -0.054720 0.023479
v 0.034165 -0.054875 0.000535
v 0.040424 -0.054720 0.004255
v 0.034165 -0.054875 0.027200
v 0.034165 -0.042918 0.024719
v 0.034165 -0.054875 0.027200
v 0.039203 -0.046697 0.022239
v 0.040424 -0.049390 0.022239
v 0.040424 -0.054720 0.023479
vt 0.940045 0.312795
vt 0.844080 0.326601
vt 0.887172 0.262179
vt 0.968196 0.377217
vt 0.784607 0.340407
vt 0.598136 0.381816
vt 0.723401 0.326601
vt 0.625712 0.312795
vt 0.677720 0.262179
vt 0.968770 0.450846
vt 0.598419 0.450846
vt 0.627153 0.515267
vt 0.941194 0.515267
vt 0.889478 0.565884
vt 0.679443 0.565884
vt 0.747540 0.593486
vt 0.821381 0.593486
vt 0.784889 0.676313
vt 0.729436 0.616499
vt 0.764487 0.699326
vt 0.837753 0.616499
vt 0.907865 0.584289
vt 0.968770 0.524465
vt 1.001524 0.450846
vt 1.000950 0.363411
vt 0.967047 0.289791
vt 0.905568 0.229968
vt 0.825401 0.197757
vt 0.819084 0.234567
vt 0.745817 0.234567
vt 0.738916 0.197757
vt 0.659041 0.229968
vt 0.598136 0.289791
vt 0.565382 0.368019
vt 0.565815 0.450846
vt 0.599567 0.529064
vt 0.661056 0.588887
vt 0.804717 0.699326
vt 0.308476 0.031968
vt 0.423403 0.059580
vt 0.386629 0.100989
vt 0.303882 0.087183
vt 0.225729 0.100989
vt 0.188955 0.059580
vt 0.345260 0.151605
vt 0.303882 0.142407
vt 0.267108 0.151605
vt 0.234928 0.179217
vt 0.165973 0.160812
vt 0.097019 0.147006
vt 0.377440 0.179217
vt 0.446394 0.160812
vt 0.446394 0.625561
vt 0.377440 0.607157
vt 0.391232 0.685384
vt 0.345260 0.639367
vt 0.308476 0.699190
vt 0.308476 0.648575
vt 0.515348 0.147006
vt 0.267108 0.639367
vt 0.225729 0.689983
vt 0.234928 0.607157
vt 0.165973 0.630160
vt 0.097019 0.643966
vt 0.313080 0.754405
vt 0.193549 0.736000
vt 0.432601 0.731401
vt 0.730010 0.257580
vt 0.815920 0.257580
vt 0.735762 0.271386
vt 0.735762 0.285183
vt 0.815638 0.298989
vt 0.730010 0.298989
vt 0.828564 0.266778
vt 0.828272 0.289791
vt 0.831436 0.280584
vt 0.515348 0.634769
vt 0.741296 0.843769
vt 0.741296 0.963415
vt 0.699918 0.926596
vt 0.699918 0.898993
vt 0.704512 0.857575
vt 0.603378 0.926596
vt 0.594189 0.963415
vt 0.603378 0.898993
vt 0.598784 0.857575
vt 0.557405 0.843769
vt 0.258598 0.843769
vt 0.240211 0.963415
vt 0.221823 0.926596
vt 0.217229 0.898993
vt 0.221823 0.857575
vt 0.106897 0.963415
vt 0.134482 0.926596
vt 0.134482 0.898993
vt 0.129878 0.857575
vt 0.097698 0.843769
vn 0.999900 -0.006200 -0.010200
vn 1.000000 0.005100 -0.005700
vn 0.999900 -0.010000 -0.009600
vn 1.000000 0.001800 -0.003100
vn 0.999700 0.023200 -0.000200
vn 1.000000 0.001600 0.003000
vn 1.000000 0.005600 0.005400
vn 0.999900 -0.006400 0.010200
vn 0.999900 -0.008900 0.009900
vn 1.000000 0.000000 0.000000
vn 0.000000 0.370600 0.928800
vn 0.000000 0.920300 -0.391200
vn 0.000000 0.813500 -0.581500
vn 0.000000 0.560600 -0.828100
vn 0.000000 0.182800 -0.983100
vn 0.000000 -0.231900 -0.972700
vn 0.000000 -0.557400 -0.830200
vn -0.001700 -0.837500 -0.546400
vn 0.000000 -0.837400 -0.546600
vn -0.015600 -0.980900 -0.194000
vn -0.017200 -0.981100 -0.192700
vn -0.017100 -0.978900 0.203500
vn -0.015500 -0.978700 0.204800
vn -0.001700 -0.814700 0.579800
vn 0.000000 -0.814500 0.580200
vn 0.000000 -0.561300 0.827600
vn 0.000000 -0.226700 0.974000
vn 0.000000 0.227900 0.973700
vn 0.000000 0.590800 0.806800
vn 0.000000 0.837100 0.547000
vn 0.000000 0.924400 0.381300
vn 0.000000 0.430200 -0.902800
vn 0.373200 -0.927700 -0.009700
vn 0.354500 -0.903700 -0.240100
vn 0.508100 -0.708200 -0.490100
vn 0.510000 -0.860100 -0.011500
vn 0.507200 -0.713100 0.483900
vn 0.341100 -0.912000 0.227900
vn 0.668100 -0.618900 -0.413200
vn 0.631700 -0.775200 -0.010300
vn 0.675000 -0.619100 0.401300
vn 0.706600 -0.219700 0.672700
vn 0.525700 -0.270600 0.806500
vn 0.302200 -0.565400 0.767500
vn 0.294800 -0.571700 0.765700
vn 0.707300 -0.227200 -0.669400
vn 0.525800 -0.275200 -0.804800
vn 0.488300 0.296300 -0.820800
vn 0.737800 0.239500 -0.631100
vn 0.514700 0.708600 -0.482600
vn 0.660600 0.619600 -0.423800
vn 0.505200 0.863000 -0.007100
vn 0.621200 0.783700 -0.006400
vn 0.310300 -0.569700 -0.761000
vn 0.304400 -0.574800 -0.759600
vn 0.659800 0.653700 0.370600
vn 0.516300 0.723800 0.457900
vn 0.699100 0.269000 0.662500
vn 0.508100 0.305200 0.805400
vn 0.362300 0.281900 0.888400
vn 0.363500 0.001600 0.931600
vn 0.383700 0.923400 -0.008100
vn 0.374100 0.903900 0.207200
vn 0.370500 0.901100 -0.225200
vn 0.383600 0.532300 0.754700
vn -0.999900 -0.004500 0.013800
vn -1.000000 -0.001500 0.000900
vn -1.000000 -0.003300 0.007000
vn -1.000000 -0.003300 -0.007000
vn -1.000000 -0.001500 -0.000900
vn -0.999900 -0.004500 -0.013700
vn -1.000000 0.000000 0.000000
vn 0.280400 0.275100 -0.919600
vn 0.371500 0.480100 -0.794700
vn 0.363600 0.001600 -0.931500
vn 0.521300 0.147100 -0.840600
vn 0.515700 0.131700 -0.846600
vn 0.543300 0.107300 -0.832700
vn 0.552900 0.115500 -0.825200
vn 0.497300 0.196700 -0.845000
vn 0.762400 0.647100 0.000000
vn 0.600100 0.800000 0.000000
vn 0.750800 0.660500 0.000000
vn 0.980400 0.196900 0.000000
vn 0.977700 0.209900 0.000000
vn 0.024800 -0.999700 -0.000000
vn 0.535700 0.171600 0.826800
vn 0.510200 0.190600 0.838700
vn 0.513500 0.191100 0.836500
vn 0.486600 0.211500 0.847700
vn 0.497400 0.196600 0.844900
vn 0.521300 0.147000 -0.840600
vn 0.515600 0.131700 -0.846700
vn 0.543300 0.107200 -0.832700
vn 0.553000 0.115300 -0.825200
vn 0.977700 0.210000 0.000000
usemtl Tex_0011_1.dds.002
s 1
f 1/1/1 2/2/2 3/3/3
f 2/2/2 1/1/1 4/4/4
f 4/4/4 5/5/5 2/2/2
f 4/4/4 6/6/6 5/5/5
f 5/5/5 6/6/6 7/7/7
f 7/7/7 6/6/6 8/8/8
f 7/7/7 8/8/8 9/9/9
f 10/10/10 6/6/6 4/4/4
f 6/6/6 10/10/10 11/11/10
f 11/11/10 10/10/10 12/12/10
f 12/12/10 10/10/10 13/13/10
f 14/14/10 12/12/10 13/13/10
f 12/12/10 14/14/10 15/15/10
f 15/15/10 14/14/10 16/16/10
f 16/16/10 14/14/10 17/17/10
f 17/17/10 18/18/10 16/16/10
f 19/18/11 20/19/11 21/16/11
f 22/20/11 20/19/11 19/18/11
f 23/17/12 24/14/13 25/21/12
f 25/21/12 24/14/13 26/22/13
f 27/13/14 26/22/13 24/14/13
f 28/23/14 26/22/13 27/13/14
f 29/10/15 28/23/14 27/13/14
f 30/24/15 28/23/14 29/10/15
f 31/4/16 30/24/15 29/10/15
f 32/25/16 30/24/15 31/4/16
f 33/1/17 32/25/16 31/4/16
f 34/26/17 32/25/16 33/1/17
f 35/3/18 34/26/17 33/1/17
f 36/27/19 34/26/17 35/3/18
f 37/28/20 36/27/19 35/3/18
f 35/3/18 38/29/21 37/28/20
f 39/30/22 37/28/20 38/29/21
f 40/31/23 37/28/20 39/30/22
f 41/9/24 40/31/23 39/30/22
f 42/32/25 40/31/23 41/9/24
f 43/8/26 42/32/25 41/9/24
f 44/33/26 42/32/25 43/8/26
f 45/6/27 44/33/26 43/8/26
f 46/34/27 44/33/26 45/6/27
f 47/11/28 46/34/27 45/6/27
f 48/35/28 46/34/27 47/11/28
f 49/12/29 48/35/28 47/11/28
f 50/36/29 48/35/28 49/12/29
f 49/12/29 51/15/30 50/36/29
f 50/36/29 51/15/30 52/37/30
f 51/15/30 53/16/31 52/37/30
f 52/37/30 53/16/31 54/19/31
f 55/17/32 56/38/32 57/18/32
f 58/21/32 56/38/32 55/17/32
f 59/39/33 60/40/34 61/41/35
f 62/42/36 59/39/33 61/41/35
f 63/43/37 59/39/33 62/42/36
f 63/43/37 64/44/38 59/39/33
f 62/42/36 61/41/35 65/45/39
f 66/46/40 62/42/36 65/45/39
f 67/47/41 62/42/36 66/46/40
f 63/43/37 62/42/36 67/47/41
f 68/48/42 63/43/37 67/47/41
f 63/43/37 68/48/42 69/49/43
f 70/50/44 63/43/37 69/49/43
f 63/43/37 70/50/44 71/44/45
f 61/41/35 72/51/46 65/45/39
f 72/51/46 61/41/35 73/52/47
f 73/52/47 74/53/48 72/51/46
f 75/54/49 72/51/46 74/53/48
f 74/53/48 76/55/50 75/54/49
f 75/54/49 76/55/50 77/56/51
f 76/55/50 78/57/52 77/56/51
f 79/58/53 77/56/51 78/57/52
f 61/41/35 80/59/54 73/52/47
f 80/59/54 61/41/35 81/40/55
f 78/57/52 82/60/56 79/58/53
f 82/60/56 78/57/52 83/61/57
f 84/62/58 82/60/56 83/61/57
f 83/61/57 85/63/59 84/62/58
f 85/63/59 68/48/42 84/62/58
f 85/63/59 69/49/43 68/48/42
f 69/49/43 85/63/59 86/64/60
f 86/64/60 87/50/61 69/49/43
f 88/65/62 83/61/57 78/57/52
f 83/61/57 88/65/62 89/66/63
f 78/57/52 76/55/50 88/65/62
f 88/65/62 76/55/50 90/67/64
f 83/61/57 86/64/60 85/63/59
f 86/64/60 83/61/57 91/66/65
f 92/68/66 93/69/67 94/70/68
f 94/70/68 93/69/67 95/71/69
f 96/72/70 95/71/69 93/69/67
f 95/71/69 96/72/70 97/73/71
f 98/74/72 96/72/70 93/69/67
f 96/72/70 98/74/72 99/75/72
f 99/75/72 98/74/72 100/76/72
f 76/55/50 101/77/73 102/67/74
f 101/77/73 76/55/50 74/53/48
f 73/52/47 101/77/73 74/53/48
f 103/59/75 101/77/73 73/52/47
f 104/47/10 105/46/10 106/45/10
f 107/51/10 104/47/10 106/45/10
f 104/47/10 107/51/10 108/48/10
f 109/54/10 108/48/10 107/51/10
f 108/48/10 109/54/10 110/62/10
f 111/56/10 110/62/10 109/54/10
f 110/62/10 111/56/10 112/60/10
f 111/56/10 113/58/10 112/60/10
f 114/78/76 115/79/77 116/80/78
f 117/81/79 114/78/76 116/80/78
f 118/82/80 114/78/76 117/81/79
f 119/83/81 120/79/82 121/84/82
f 120/79/82 119/83/81 122/80/83
f 123/85/84 122/80/83 119/83/81
f 122/80/83 123/85/84 124/81/85
f 123/85/84 125/82/10 124/81/85
f 126/86/10 125/82/10 123/85/84
f 127/86/86 128/78/86 129/82/86
f 130/87/86 128/78/86 127/86/86
f 131/84/87 132/87/88 133/83/89
f 133/83/89 132/87/88 134/85/90
f 135/86/91 134/85/90 132/87/88
f 136/88/92 137/89/93 138/90/94
f 139/91/95 136/88/92 138/90/94
f 140/92/80 136/88/92 139/91/95
f 141/93/82 142/90/83 143/89/82
f 144/94/81 142/90/83 141/93/82
f 145/95/84 142/90/83 144/94/81
f 142/90/83 145/95/84 146/91/96
f 147/96/10 146/91/96 145/95/84
f 146/91/96 147/96/10 148/92/10
f 149/96/86 150/88/86 151/92/86
f 152/97/86 150/88/86 149/96/86
f 153/93/87 154/97/88 155/94/89
f 155/94/89 154/97/88 156/95/90
f 157/96/91 156/95/90 154/97/88
