# Blender v2.76 (sub 0) OBJ File: ''
# www.blender.org
mtllib trigger.mtl
o Mesh_0011_Untitled.001
v 0.009544 -0.075864 0.005710
v 0.009544 -0.064857 0.001370
v 0.009544 -0.073073 0.007571
v 0.009544 -0.068345 -0.004212
v 0.009544 -0.052377 -0.002351
v 0.009544 -0.052532 -0.012893
v 0.009544 -0.017650 -0.016614
v 0.009544 -0.019200 0.003230
v 0.009544 0.006689 -0.011653
v 0.009544 0.002542 0.019353
v -0.009544 -0.064857 0.001370
v -0.009544 -0.075864 0.005710
v -0.009544 -0.073073 0.007571
v -0.009544 -0.068345 -0.004212
v -0.009544 -0.052377 -0.002351
v -0.009544 -0.052532 -0.012893
v -0.009544 -0.017650 -0.016614
v -0.009544 -0.019200 0.003230
v -0.009544 0.006689 -0.011653
v -0.009544 0.002542 0.019353
v -0.009544 0.002542 0.019353
v 0.009544 0.006689 -0.011653
v -0.009544 0.006689 -0.011653
v 0.009544 0.002542 0.019353
v 0.009544 -0.017650 -0.016614
v -0.009544 0.006689 -0.011653
v 0.009544 0.006689 -0.011653
v -0.009544 -0.017650 -0.016614
v 0.009544 -0.052532 -0.012893
v -0.009544 -0.052532 -0.012893
v 0.009544 -0.068345 -0.004212
v -0.009544 -0.068345 -0.004212
v 0.009544 -0.075864 0.005710
v -0.009544 -0.075864 0.005710
v 0.009544 -0.073073 0.007571
v -0.009544 -0.075864 0.005710
v 0.009544 -0.075864 0.005710
v -0.009544 -0.073073 0.007571
v 0.009544 -0.064857 0.001370
v -0.009544 -0.073073 0.007571
v 0.009544 -0.073073 0.007571
v -0.009544 -0.064857 0.001370
v 0.009544 -0.052377 -0.002351
v -0.009544 -0.052377 -0.002351
v 0.009544 -0.019200 0.003230
v -0.009544 -0.019200 0.003230
v 0.009544 0.002542 0.019353
v -0.009544 0.002542 0.019353
vt 0.014780 0.461421
vt 0.163902 0.554618
vt 0.014780 0.548408
vt 0.163902 0.449002
vt 0.345638 0.579482
vt 0.345638 0.424151
vt 0.743288 0.362015
vt 0.743288 0.654037
vt 0.982502 0.362015
vt 0.982502 0.654037
vt 0.982502 0.138339
vt 0.743288 0.138339
vt 0.454372 0.362015
vt 0.454372 0.138339
vt 0.320787 0.362015
vt 0.320787 0.138339
vt 0.205843 0.362015
vt 0.205843 0.138339
vt 0.320787 0.654037
vt 0.205843 0.902565
vt 0.205843 0.654037
vt 0.320787 0.902565
vt 0.454372 0.654037
vt 0.454372 0.902565
vt 0.743288 0.902565
vt 0.982502 0.902565
vn 1.000000 0.000000 0.000000
vn -1.000000 0.000000 0.000000
vn 0.000000 0.991200 0.132600
vn 0.000000 0.047400 -0.998900
vn 0.000000 0.199700 -0.979900
vn 0.000000 -0.299500 -0.954100
vn 0.000000 -0.653500 -0.756900
vn 0.000000 -0.797000 -0.604000
vn 0.000000 -0.554800 0.832000
vn 0.000000 0.451200 0.892400
vn 0.000000 0.602400 0.798200
vn 0.000000 0.061500 0.998100
vn 0.000000 -0.391600 0.920100
vn 0.000000 -0.595700 0.803200
usemtl Tex_0011_1.dds.008
s 1
f 1/1/1 2/2/1 3/3/1
f 2/2/1 1/1/1 4/4/1
f 4/4/1 5/5/1 2/2/1
f 5/5/1 4/4/1 6/6/1
f 7/7/1 5/5/1 6/6/1
f 5/5/1 7/7/1 8/8/1
f 9/9/1 8/8/1 7/7/1
f 9/9/1 10/10/1 8/8/1
f 11/2/2 12/1/2 13/3/2
f 12/1/2 11/2/2 14/4/2
f 15/5/2 14/4/2 11/2/2
f 16/6/2 14/4/2 15/5/2
f 15/5/2 17/7/2 16/6/2
f 17/7/2 15/5/2 18/8/2
f 18/8/2 19/9/2 17/7/2
f 20/10/2 19/9/2 18/8/2
f 21/10/3 22/9/3 23/9/3
f 21/10/3 24/10/3 22/9/3
f 25/7/4 26/11/5 27/9/5
f 28/12/4 26/11/5 25/7/4
f 29/13/6 28/12/4 25/7/4
f 30/14/6 28/12/4 29/13/6
f 31/15/7 30/14/6 29/13/6
f 32/16/7 30/14/6 31/15/7
f 33/17/8 32/16/7 31/15/7
f 33/17/8 34/18/8 32/16/7
f 35/3/9 36/1/9 37/1/9
f 35/3/9 38/3/9 36/1/9
f 39/19/10 40/20/11 41/21/11
f 39/19/10 42/22/10 40/20/11
f 43/23/12 42/22/10 39/19/10
f 44/24/12 42/22/10 43/23/12
f 45/8/13 44/24/12 43/23/12
f 46/25/13 44/24/12 45/8/13
f 47/10/14 46/25/13 45/8/13
f 48/26/14 46/25/13 47/10/14
