# Blender v2.76 (sub 0) OBJ File: ''
# www.blender.org
mtllib barrelSegmant.mtl
o Figure_1.003
v 0.011637 -0.018359 -0.000000
v -0.000000 -0.021498 0.050000
v -0.000000 -0.021498 -0.000000
v 0.011637 -0.018359 0.050000
v 0.020154 -0.009832 0.050000
v 0.020154 -0.009832 -0.000000
v 0.023274 0.001795 0.050000
v 0.023274 0.001795 -0.000000
v 0.020154 0.013422 -0.000000
v 0.020154 0.013422 0.050000
v 0.011637 0.021949 0.050000
v 0.011637 0.021949 -0.000000
v -0.000000 0.025049 0.050000
v -0.000000 0.025049 -0.000000
v -0.011637 0.021949 0.050000
v -0.011637 0.021949 -0.000000
v -0.020154 0.013422 0.050000
v -0.020154 0.013422 -0.000000
v -0.023274 0.001795 0.050000
v -0.023274 0.001795 -0.000000
v -0.020154 -0.009832 0.050000
v -0.020154 -0.009832 -0.000000
v -0.011637 -0.018359 -0.000000
v -0.011637 -0.018359 0.050000
v -0.000000 -0.021498 -0.000000
v -0.000000 -0.021498 0.050000
vt 0.935694 0.054238
vt 0.803303 0.028841
vt 0.935694 0.028841
vt 0.803303 0.054238
vt 0.803303 0.080973
vt 0.935694 0.080973
vt 0.803303 0.111716
vt 0.935694 0.111716
vt 0.935694 0.139788
vt 0.803303 0.139788
vt 0.803303 0.167859
vt 0.935694 0.167859
vt 0.803303 0.194594
vt 0.935694 0.194594
vt 0.803303 0.222666
vt 0.935694 0.222666
vt 0.803303 0.249399
vt 0.935694 0.249399
vt 0.803303 0.276134
vt 0.935694 0.276134
vt 0.803303 0.304205
vt 0.935694 0.304205
vt 0.935694 0.332277
vt 0.803303 0.332277
vt 0.935694 0.360348
vt 0.803303 0.359009
vn 0.501000 -0.865500 -0.000000
vn 0.260400 -0.965500 -0.000000
vn 0.866100 -0.499900 -0.000000
vn 1.000000 -0.000000 -0.000000
vn 0.866100 0.499900 0.000000
vn 0.499600 0.866200 0.000000
vn -0.000000 1.000000 0.000000
vn -0.499600 0.866200 0.000000
vn -0.866100 0.499900 0.000000
vn -1.000000 -0.000000 -0.000000
vn -0.866100 -0.499900 -0.000000
vn -0.501000 -0.865500 -0.000000
vn -0.260400 -0.965500 -0.000000
usemtl Tex_0011_1.dds.006
s 1
f 1/1/1 2/2/2 3/3/2
f 2/2/2 1/1/1 4/4/1
f 4/4/1 1/1/1 5/5/3
f 5/5/3 1/1/1 6/6/3
f 6/6/3 7/7/4 5/5/3
f 7/7/4 6/6/3 8/8/4
f 9/9/5 7/7/4 8/8/4
f 7/7/4 9/9/5 10/10/5
f 10/10/5 9/9/5 11/11/6
f 11/11/6 9/9/5 12/12/6
f 11/11/6 12/12/6 13/13/7
f 13/13/7 12/12/6 14/14/7
f 13/13/7 14/14/7 15/15/8
f 15/15/8 14/14/7 16/16/8
f 15/15/8 16/16/8 17/17/9
f 17/17/9 16/16/8 18/18/9
f 18/18/9 19/19/10 17/17/9
f 19/19/10 18/18/9 20/20/10
f 20/20/10 21/21/11 19/19/10
f 21/21/11 20/20/10 22/22/11
f 23/23/12 21/21/11 22/22/11
f 21/21/11 23/23/12 24/24/12
f 25/25/13 24/24/12 23/23/12
f 24/24/12 25/25/13 26/26/13
